<svg width="24" height="24" viewBox="0 0 24 24" fill="none" xmlns="http://www.w3.org/2000/svg">
<path fill-rule="evenodd" clip-rule="evenodd" d="M6.47044 2.00173L6.49706 2.00344C7.02095 2.04687 7.47597 2.30722 7.89133 2.71305C8.68068 3.48398 10.3757 5.73367 10.5036 6.3459C10.6453 7.02891 10.4938 7.47252 10.0424 8.25724L9.93299 8.45064C9.72584 8.82898 9.69417 8.98521 9.75831 9.16409C10.7439 11.5763 12.4259 13.258 14.8106 14.232C15.0364 14.3138 15.2069 14.2669 15.6842 13.9931L15.9332 13.8522C16.6042 13.4842 17.0294 13.3679 17.6565 13.4985C18.2666 13.6264 20.5176 15.3224 21.2873 16.1108C21.6926 16.5257 21.9535 16.9816 21.999 17.5399C22.0469 18.8972 20.3908 20.8082 19.3805 21.3828C18.2317 22.2046 16.7737 22.191 15.139 21.4301C10.8641 19.6513 4.325 13.1539 2.58238 8.88432L2.47807 8.64549C1.81637 7.06399 1.83071 5.69766 2.58898 4.66758C3.28088 3.52176 5.14635 1.94049 6.47044 2.00173ZM6.38949 3.46415L6.30133 3.46867C5.62173 3.55895 4.25889 4.73225 3.80504 5.47852L3.72663 5.59519C3.33565 6.23222 3.38096 7.10705 3.92531 8.30487L4.02934 8.54839C5.78486 12.4884 11.8632 18.4824 15.7282 20.0913L15.9411 20.186C17.0594 20.66 17.9059 20.6389 18.5912 20.153L18.6419 20.1204C18.854 19.973 19.343 19.5287 19.7197 19.094C20.2488 18.4835 20.5485 17.9241 20.5388 17.6264C20.5282 17.499 20.4299 17.3273 20.2406 17.1334C19.6684 16.5474 17.5872 14.9793 17.3572 14.9311C17.1398 14.8858 16.9612 14.9466 16.4731 15.2275L16.2275 15.3654C15.5083 15.7533 15.0013 15.8575 14.285 15.5975C11.509 14.4644 9.53819 12.494 8.39315 9.68999C8.12193 8.94028 8.26793 8.40985 8.73958 7.58781L8.85195 7.3901C9.06622 7.00323 9.11156 6.83909 9.07119 6.64438C9.02285 6.41311 7.45576 4.33319 6.86895 3.76006C6.67463 3.5702 6.50389 3.47251 6.3761 3.46191L6.38949 3.46415Z" fill="#2F2F2F"/>
</svg>
