<svg width="64" height="64" viewBox="0 0 64 64" fill="none" xmlns="http://www.w3.org/2000/svg">
<path d="M56.9099 24.3282H47.0596C46.4011 24.3282 45.6629 25.0322 45.4806 25.8338C45.4755 25.8553 45.4692 25.8769 45.4616 25.8971L44.7259 27.8814C44.6524 28.0802 44.4625 28.2119 44.251 28.2119H9.79951C8.89919 28.2119 8.16602 28.9451 8.16602 29.8454V33.5861H9.0638V32.0007C9.0638 31.7208 9.29047 31.4942 9.57031 31.4942H11.4368V29.853C11.4368 29.5732 11.6635 29.3465 11.9433 29.3465H55.4335C55.7133 29.3465 55.94 29.5732 55.94 29.853V33.5861H56.4148C57.029 33.5861 57.5937 33.7988 58.0433 34.1521V25.4628C58.0433 24.836 57.5355 24.3282 56.9099 24.3282Z" fill="white"/>
<path d="M12.4492 30.3596V31.4942H53.0611C53.341 31.4942 53.5677 31.7208 53.5677 32.0007V33.5861H54.9276V30.3596H12.4492Z" fill="#427AC6"/>
<path d="M52.5553 32.5071H10.0781V33.586H52.5553V32.5071Z" fill="#427AC6"/>
<path d="M56.4162 34.5978H7.38233C6.48455 34.5978 5.75391 35.3285 5.75391 36.2263V49.178C11.3572 57.7217 21.0188 63.3669 32 63.3669C42.8494 63.3669 52.411 57.8585 58.0434 49.4857V36.2263C58.0434 35.3285 57.314 34.5978 56.4162 34.5978ZM50.052 45.3512H33.0801V39.5225H50.052V45.3512Z" fill="white"/>
<path d="M33.0791 45.3513H50.051V39.5225H33.0791V45.3513ZM35.4116 41.2346H47.7109C47.8856 41.2346 48.0275 41.3764 48.0275 41.5511C48.0275 41.7259 47.8856 41.8677 47.7109 41.8677H35.4116C35.2368 41.8677 35.095 41.7259 35.095 41.5511C35.095 41.3764 35.2356 41.2346 35.4116 41.2346ZM35.4116 43.2454H47.7109C47.8856 43.2454 48.0275 43.3873 48.0275 43.562C48.0275 43.7368 47.8856 43.8786 47.7109 43.8786H35.4116C35.2368 43.8786 35.095 43.7368 35.095 43.562C35.095 43.3873 35.2356 43.2454 35.4116 43.2454Z" fill="#427AC6"/>
<path d="M35.4113 41.8676H47.7106C47.8854 41.8676 48.0272 41.7258 48.0272 41.5511C48.0272 41.3763 47.8854 41.2345 47.7106 41.2345H35.4113C35.2365 41.2345 35.0947 41.3763 35.0947 41.5511C35.0947 41.7271 35.2353 41.8676 35.4113 41.8676Z" fill="white"/>
<path d="M35.4113 43.8786H47.7106C47.8854 43.8786 48.0272 43.7367 48.0272 43.562C48.0272 43.3872 47.8854 43.2454 47.7106 43.2454H35.4113C35.2365 43.2454 35.0947 43.3872 35.0947 43.562C35.0947 43.7367 35.2353 43.8786 35.4113 43.8786Z" fill="white"/>
<path d="M8.16439 33.5847V29.8441C8.16439 28.9437 8.89756 28.2106 9.79788 28.2106H44.2481C44.4596 28.2106 44.6495 28.0789 44.723 27.8801L45.4587 25.8958C45.4663 25.8742 45.4726 25.854 45.4777 25.8324C45.66 25.0296 46.3982 24.3268 47.0567 24.3268H56.907C57.5326 24.3268 58.0416 24.8359 58.0416 25.4614V34.1508C58.657 34.6345 59.0546 35.3841 59.0546 36.2262V25.4614C59.0546 24.2774 58.091 23.3138 56.907 23.3138H47.0567C45.9196 23.3138 44.8015 24.304 44.4976 25.5741L43.8948 27.1975H9.79788C8.33913 27.1975 7.15137 28.3853 7.15137 29.8441V33.5961C7.22734 33.5898 7.30332 33.5847 7.38056 33.5847H8.16439Z" fill="#427AC6"/>
<path d="M55.4322 29.3464H11.9421C11.6622 29.3464 11.4355 29.5731 11.4355 29.853V31.4941H12.4486V30.3595H54.9257V33.586H55.9387V29.853C55.9387 29.5731 55.7121 29.3464 55.4322 29.3464Z" fill="#427AC6"/>
<path d="M53.0611 31.4941H12.4492H11.4362H9.57096C9.29112 31.4941 9.06445 31.7207 9.06445 32.0006V33.586H10.0775V32.5071H52.5546V33.586H53.5676V32.0006C53.5676 31.7207 53.341 31.4941 53.0611 31.4941Z" fill="#427AC6"/>
<path d="M58.0425 34.1508C57.5929 33.7975 57.0282 33.5848 56.414 33.5848H55.9392H54.9262H53.5662H52.5532H10.0773H9.06427H8.16648H7.38266C7.30541 33.5848 7.22944 33.5898 7.15346 33.5962C5.80488 33.7127 4.74121 34.8473 4.74121 36.2263V47.5267C5.06158 48.089 5.40094 48.6385 5.75423 49.178V36.2263C5.75423 35.3285 6.48487 34.5978 7.38266 34.5978H56.4153C57.3131 34.5978 58.0437 35.3285 58.0437 36.2263V49.4857C58.397 48.9602 58.7351 48.422 59.0567 47.8737V36.2263C59.0555 35.3842 58.6591 34.6345 58.0425 34.1508Z" fill="#427AC6"/>
<path d="M40.2462 2.36166C40.1918 2.36166 40.1348 2.35406 40.0803 2.33886C39.0369 2.05521 37.9657 1.82475 36.8957 1.6538C36.55 1.59808 36.3157 1.27391 36.3702 0.928208C36.4259 0.582508 36.75 0.348243 37.0957 0.402694C38.2101 0.581242 39.3256 0.821839 40.4134 1.11689C40.7502 1.20806 40.9503 1.55629 40.8578 1.89439C40.7806 2.17678 40.5248 2.36166 40.2462 2.36166Z" fill="white"/>
<path d="M31.9987 64C23.4514 64 15.4156 60.6709 9.37169 54.6269C3.32903 48.5841 0 40.5481 0 32.0006C0 23.4531 3.32903 15.4172 9.37296 9.37314C15.4169 3.3291 23.4514 0 31.9987 0C32.3482 0 32.6319 0.283651 32.6319 0.633149C32.6319 0.982648 32.3482 1.2663 31.9987 1.2663C23.7895 1.2663 16.0715 4.4637 10.2669 10.2684C4.46361 16.0731 1.26627 23.7912 1.26627 32.0006C1.26627 40.21 4.46361 47.9281 10.2682 53.7328C16.0728 59.5376 23.7907 62.735 32 62.735C40.2093 62.735 47.9272 59.5376 53.7318 53.7328C59.5364 47.9281 62.7337 40.21 62.7337 32.0006C62.7337 26.2415 61.1319 20.628 58.1004 15.7654C55.1513 11.0345 50.9764 7.19004 46.0265 4.64605C45.715 4.4865 45.5934 4.10407 45.753 3.79383C45.9125 3.48232 46.295 3.36076 46.6052 3.52031C51.7589 6.16814 56.106 10.1709 59.1755 15.0955C62.3323 20.1595 64 26.0047 64 32.0006C64 40.5481 60.671 48.5841 54.627 54.6281C48.5819 60.6709 40.5461 64 31.9987 64Z" fill="white"/>
<path d="M44.1302 2.71113C44.1302 3.1556 43.7693 3.51649 43.3249 3.51649C42.8804 3.51649 42.5195 3.1556 42.5195 2.71113C42.5195 2.26666 42.8804 1.90576 43.3249 1.90576C43.7693 1.90576 44.1302 2.26539 44.1302 2.71113Z" fill="white"/>
</svg>
