<svg width="64" height="64" viewBox="0 0 64 64" fill="none" xmlns="http://www.w3.org/2000/svg">
<path d="M14.0977 22.14V23.7861H53.0685C53.3483 23.7861 53.575 24.0128 53.575 24.2927V54.7674C54.2942 54.0861 54.9806 53.3707 55.6314 52.6248V22.14H14.0977Z" fill="white"/>
<path d="M18.5748 25.3741C17.8289 25.3741 17.3199 25.8857 17.2236 26.6987H20.0094C19.9461 26.1086 19.6511 25.3741 18.5748 25.3741Z" fill="#687199"/>
<path d="M20.0479 24.7993C20.6101 25.2007 20.9621 25.8591 21.0267 26.6987H42.4305C42.4343 26.6987 42.4368 26.7 42.4406 26.7C42.5001 26.7012 42.5597 26.7126 42.6154 26.7342C42.623 26.7367 42.6306 26.7405 42.6382 26.7443C42.6584 26.7532 42.6774 26.7633 42.6977 26.7759C42.7053 26.781 42.7129 26.7848 42.7192 26.7899C42.7433 26.8063 42.7673 26.8253 42.7889 26.8469L50.7664 34.8245C50.7879 34.8461 50.8069 34.8701 50.8234 34.8942C50.8284 34.9018 50.8322 34.9081 50.8373 34.9157C50.8487 34.9347 50.8601 34.955 50.8689 34.9752C50.8727 34.9828 50.8765 34.9904 50.8791 34.998C50.8892 35.0259 50.8993 35.0537 50.9044 35.0816V35.0829C50.9107 35.112 50.912 35.1424 50.9133 35.1715C50.9133 35.1753 50.9145 35.1778 50.9145 35.1816V57.0215C51.478 56.5947 52.0276 56.1503 52.5607 55.6868V24.7993H20.0479Z" fill="#687199"/>
<path d="M16.2029 26.6987C16.2713 25.8743 16.6296 25.207 17.1842 24.7993H11.0264V26.6987H16.2029Z" fill="#687199"/>
<path d="M19.0611 38.0764C19.636 38.0764 20.2122 37.8206 20.5566 37.2736H17.5391C17.8987 37.8181 18.4938 38.0764 19.0611 38.0764Z" fill="white"/>
<path d="M32.0005 63.3669C36.1767 63.3669 40.1604 62.5488 43.8034 61.0673H20.1963C23.8406 62.5488 27.8243 63.3669 32.0005 63.3669Z" fill="white"/>
<path d="M42.4299 35.6894C42.1501 35.6894 41.9234 35.4627 41.9234 35.1828V27.7117H17.2032V36.0401C17.2032 36.2592 17.2286 36.4567 17.2729 36.6391H20.8108C20.8514 36.4567 20.8754 36.2592 20.8754 36.0401V28.8906C20.8754 28.6107 21.1021 28.3841 21.3819 28.3841C21.6618 28.3841 21.8884 28.6107 21.8884 28.8906V36.0401C21.8884 36.2554 21.872 36.4542 21.8441 36.6391H44.9042C45.079 36.6391 45.2208 36.7809 45.2208 36.9557C45.2208 37.1304 45.079 37.2722 44.9042 37.2722H21.6808C21.5048 37.7484 21.2452 38.0865 21.0109 38.3131C20.4968 38.8133 19.8042 39.0881 19.0609 39.0881C17.9643 39.0881 16.8575 38.4676 16.4042 37.2722H13.3639C13.1892 37.2722 13.0473 37.1304 13.0473 36.9557C13.0473 36.7809 13.1892 36.6391 13.3639 36.6391H16.2371C16.2067 36.4504 16.1902 36.2503 16.1902 36.0401V27.7117H8.36719V52.6236C9.81074 54.2761 11.424 55.7754 13.1803 57.0949C13.2322 57.0569 13.2955 57.0341 13.3652 57.0341H44.9042C45.079 57.0341 45.2208 57.1759 45.2208 57.3507C45.2208 57.5254 45.079 57.6672 44.9042 57.6672H13.9692C15.4697 58.7233 17.0665 59.6503 18.7443 60.4328H44.903C44.9777 60.4328 45.0461 60.4607 45.1005 60.5037C46.7872 59.7275 48.3916 58.8056 49.901 57.7546V35.6894H42.4299ZM44.9042 54.2685H13.3652C13.1904 54.2685 13.0486 54.1267 13.0486 53.9519C13.0486 53.7772 13.1904 53.6353 13.3652 53.6353H44.9042C45.079 53.6353 45.2208 53.7772 45.2208 53.9519C45.2208 54.1279 45.079 54.2685 44.9042 54.2685ZM44.9042 50.8697H13.3652C13.1904 50.8697 13.0486 50.7279 13.0486 50.5532C13.0486 50.3784 13.1904 50.2366 13.3652 50.2366H44.9042C45.079 50.2366 45.2208 50.3784 45.2208 50.5532C45.2208 50.7279 45.079 50.8697 44.9042 50.8697ZM44.9042 47.471H13.3652C13.1904 47.471 13.0486 47.3292 13.0486 47.1544C13.0486 46.9797 13.1904 46.8378 13.3652 46.8378H44.9042C45.079 46.8378 45.2208 46.9797 45.2208 47.1544C45.2208 47.3292 45.079 47.471 44.9042 47.471ZM44.9042 44.071H13.3652C13.1904 44.071 13.0486 43.9292 13.0486 43.7544C13.0486 43.5797 13.1904 43.4378 13.3652 43.4378H44.9042C45.079 43.4378 45.2208 43.5797 45.2208 43.7544C45.2208 43.9292 45.079 44.071 44.9042 44.071ZM44.9042 40.6722H13.3652C13.1904 40.6722 13.0486 40.5304 13.0486 40.3557C13.0486 40.1809 13.1904 40.0391 13.3652 40.0391H44.9042C45.079 40.0391 45.2208 40.1809 45.2208 40.3557C45.2208 40.5304 45.079 40.6722 44.9042 40.6722Z" fill="white"/>
<path d="M42.9365 34.6763H49.1856L42.9365 28.4284V34.6763Z" fill="white"/>
<path d="M20.5581 37.2723C20.6708 37.0938 20.7569 36.8823 20.8114 36.6392H17.2734C17.3304 36.8823 17.4216 37.0938 17.5394 37.2723H20.5581Z" fill="#687199"/>
<path d="M13.3654 36.6392C13.1907 36.6392 13.0488 36.781 13.0488 36.9557C13.0488 37.1305 13.1907 37.2723 13.3654 37.2723H16.4057C16.331 37.076 16.2753 36.8658 16.2386 36.6392H13.3654Z" fill="#687199"/>
<path d="M44.9051 37.2723C45.0798 37.2723 45.2217 37.1305 45.2217 36.9557C45.2217 36.781 45.0798 36.6392 44.9051 36.6392H21.845C21.8083 36.8734 21.7513 37.0836 21.6816 37.2723H44.9051Z" fill="#687199"/>
<path d="M44.9045 40.0391H13.3654C13.1907 40.0391 13.0488 40.1809 13.0488 40.3557C13.0488 40.5304 13.1907 40.6723 13.3654 40.6723H44.9045C45.0792 40.6723 45.221 40.5304 45.221 40.3557C45.221 40.1809 45.0792 40.0391 44.9045 40.0391Z" fill="#687199"/>
<path d="M44.9045 43.4379H13.3654C13.1907 43.4379 13.0488 43.5797 13.0488 43.7544C13.0488 43.9292 13.1907 44.071 13.3654 44.071H44.9045C45.0792 44.071 45.221 43.9292 45.221 43.7544C45.221 43.5797 45.0792 43.4379 44.9045 43.4379Z" fill="#687199"/>
<path d="M44.9045 46.8379H13.3654C13.1907 46.8379 13.0488 46.9797 13.0488 47.1545C13.0488 47.3292 13.1907 47.471 13.3654 47.471H44.9045C45.0792 47.471 45.221 47.3292 45.221 47.1545C45.221 46.9797 45.0792 46.8379 44.9045 46.8379Z" fill="#687199"/>
<path d="M44.9045 50.2366H13.3654C13.1907 50.2366 13.0488 50.3785 13.0488 50.5532C13.0488 50.728 13.1907 50.8698 13.3654 50.8698H44.9045C45.0792 50.8698 45.221 50.728 45.221 50.5532C45.221 50.3785 45.0792 50.2366 44.9045 50.2366Z" fill="#687199"/>
<path d="M44.9045 53.6354H13.3654C13.1907 53.6354 13.0488 53.7772 13.0488 53.952C13.0488 54.1267 13.1907 54.2685 13.3654 54.2685H44.9045C45.0792 54.2685 45.221 54.1267 45.221 53.952C45.221 53.7772 45.0792 53.6354 44.9045 53.6354Z" fill="#687199"/>
<path d="M44.9046 57.6685C45.0794 57.6685 45.2212 57.5267 45.2212 57.352C45.2212 57.1772 45.0794 57.0354 44.9046 57.0354H13.3656C13.2959 57.0354 13.2326 57.0582 13.1807 57.0962C13.4403 57.2912 13.7036 57.4824 13.9696 57.6685H44.9046Z" fill="#687199"/>
<path d="M18.7461 60.4341C19.2235 60.657 19.7072 60.8684 20.1972 61.0672H43.8044C44.2425 60.8887 44.6756 60.7025 45.1036 60.505C45.0491 60.4607 44.9807 60.4341 44.906 60.4341H18.7461Z" fill="#687199"/>
<path d="M56.1383 21.1269H13.5915C13.3116 21.1269 13.085 21.3536 13.085 21.6334V23.7861H14.098V22.1399H55.6317V52.6235C55.9787 52.2259 56.3168 51.8194 56.6448 51.4041V21.6334C56.6448 21.3536 56.4181 21.1269 56.1383 21.1269Z" fill="#687199"/>
<path d="M53.067 23.7861H14.0961H13.0831H10.5202C10.2403 23.7861 10.0137 24.0128 10.0137 24.2927V26.6986H11.0267V24.7992H17.1846C17.5657 24.5193 18.038 24.361 18.5737 24.361C19.1536 24.361 19.6525 24.5168 20.0476 24.7992H52.5617V55.6867C52.9061 55.3879 53.2442 55.0802 53.5747 54.7661V24.2927C53.5735 24.0128 53.3468 23.7861 53.067 23.7861Z" fill="#687199"/>
<path d="M50.8232 34.8954C50.8283 34.903 50.8321 34.9093 50.8372 34.9169C50.8334 34.9093 50.8283 34.9017 50.8232 34.8954Z" fill="#687199"/>
<path d="M42.6982 26.7759C42.7058 26.7809 42.7134 26.7847 42.7198 26.7898C42.7122 26.7847 42.7058 26.7809 42.6982 26.7759Z" fill="#687199"/>
<path d="M50.9144 35.1727C50.9157 35.2411 50.9042 35.3108 50.8764 35.3766C50.7979 35.5653 50.613 35.6894 50.4079 35.6894H49.9014V57.7572C50.2445 57.5191 50.5814 57.2734 50.9144 57.0214V35.1829C50.9144 35.1791 50.9144 35.1765 50.9144 35.1727Z" fill="#687199"/>
<path d="M42.6152 26.7341C42.6228 26.7366 42.6304 26.7404 42.638 26.7442C42.6304 26.7417 42.6228 26.7379 42.6152 26.7341Z" fill="#687199"/>
<path d="M20.5316 27.4952C20.2517 27.4952 20.0251 27.2685 20.0251 26.9886C20.0251 26.9 20.02 26.8012 20.0086 26.6987H17.2228C17.2114 26.7911 17.2051 26.8873 17.2051 26.9886V27.7117H41.9253V27.2052C41.9253 27 42.0481 26.8152 42.238 26.7366C42.3039 26.7088 42.3735 26.6974 42.4419 26.6987C42.4381 26.6987 42.4356 26.6974 42.4318 26.6974H21.028C21.0356 26.7911 21.0394 26.8886 21.0394 26.9874C21.0381 27.2685 20.8102 27.4952 20.5316 27.4952Z" fill="#687199"/>
<path d="M16.1918 27.7117V26.9887C16.1918 26.8899 16.1956 26.7936 16.2032 26.6987H11.0267H10.0137H7.861C7.58116 26.6987 7.35449 26.9253 7.35449 27.2052V51.4042C7.68246 51.8195 8.02055 52.226 8.36751 52.6236V27.7117H16.1918Z" fill="#687199"/>
<path d="M41.9238 27.2051V27.7117V35.1828C41.9238 35.4627 42.1505 35.6893 42.4303 35.6893H49.9014H50.4079C50.613 35.6893 50.7979 35.5665 50.8764 35.3766C50.9042 35.3107 50.9156 35.2411 50.9144 35.1727C50.9144 35.1423 50.9118 35.1132 50.9055 35.084V35.0828C50.8992 35.0536 50.8903 35.0258 50.8802 34.9992C50.8776 34.9916 50.8738 34.984 50.87 34.9764C50.8612 34.9561 50.8498 34.9359 50.8384 34.9169C50.8333 34.9093 50.8295 34.903 50.8245 34.8954C50.808 34.8713 50.789 34.8472 50.7675 34.8257L42.79 26.848C42.7684 26.8265 42.7444 26.8075 42.7203 26.7911C42.7127 26.786 42.7064 26.7822 42.6988 26.7771C42.6798 26.7657 42.6595 26.7543 42.6393 26.7455C42.6317 26.7417 42.6241 26.7379 42.6165 26.7353C42.5608 26.7138 42.5012 26.7024 42.4417 26.7011C42.3734 26.6999 42.3037 26.7113 42.2379 26.7391C42.0479 26.8164 41.9238 27 41.9238 27.2051ZM49.1859 34.6763H42.9381V28.4284L49.1859 34.6763Z" fill="#687199"/>
<path d="M16.2038 26.6986C16.1962 26.7936 16.1924 26.8898 16.1924 26.9886V27.7116V36.0401C16.1924 36.2503 16.2088 36.4491 16.2392 36.6391C16.276 36.8657 16.3317 37.0759 16.4064 37.2722C16.8597 38.4689 17.9664 39.0881 19.063 39.0881C19.8063 39.0881 20.499 38.8133 21.0131 38.3131C21.2474 38.0852 21.5069 37.7471 21.6829 37.2722C21.7526 37.0835 21.8096 36.8733 21.8463 36.6391C21.8754 36.4542 21.8906 36.2554 21.8906 36.0401V28.8906C21.8906 28.6107 21.664 28.3841 21.3841 28.3841C21.1043 28.3841 20.8776 28.6107 20.8776 28.8906V36.0401C20.8776 36.2592 20.8535 36.4567 20.813 36.6391C20.7586 36.8822 20.6725 37.0937 20.5598 37.2722C20.2153 37.8192 19.6379 38.075 19.0643 38.075C18.4957 38.075 17.9019 37.8167 17.5422 37.2722C17.4245 37.0937 17.3333 36.8822 17.2763 36.6391C17.2333 36.4567 17.2067 36.2592 17.2067 36.0401V27.7116V26.9886C17.2067 26.8886 17.2143 26.7923 17.2244 26.6986C17.3206 25.8856 17.8284 25.3741 18.5755 25.3741C19.6519 25.3741 19.9469 26.1085 20.0102 26.6986C20.0216 26.8012 20.0267 26.8987 20.0267 26.9886C20.0267 27.2684 20.2533 27.4951 20.5332 27.4951C20.813 27.4951 21.0397 27.2684 21.0397 26.9886C21.0397 26.8898 21.0359 26.7936 21.0283 26.6986C20.9637 25.8591 20.6117 25.2006 20.0495 24.7992C19.6544 24.5168 19.1555 24.361 18.5755 24.361C18.0412 24.361 17.5676 24.5193 17.1864 24.7992C16.6318 25.2069 16.2722 25.8742 16.2038 26.6986Z" fill="#687199"/>
<path d="M40.2462 2.36166C40.1918 2.36166 40.1348 2.35406 40.0803 2.33886C39.0369 2.05521 37.9657 1.82475 36.8957 1.6538C36.55 1.59808 36.3157 1.27391 36.3702 0.928208C36.4259 0.582508 36.7501 0.348243 37.0957 0.402694C38.2101 0.581242 39.3269 0.821839 40.4134 1.11689C40.7502 1.20806 40.9503 1.55629 40.8578 1.89439C40.7806 2.17678 40.5248 2.36166 40.2462 2.36166Z" fill="white"/>
<path d="M32 64C23.4526 64 15.4169 60.6709 9.37296 54.6269C3.32904 48.5828 0 40.5469 0 31.9994C0 23.4518 3.32904 15.4159 9.37296 9.37188C15.4169 3.32783 23.4526 0 32 0C32.3495 0 32.6331 0.283651 32.6331 0.633149C32.6331 0.982648 32.3495 1.2663 32 1.2663C23.7907 1.2663 16.0728 4.4637 10.2682 10.2684C4.46361 16.0731 1.26627 23.7912 1.26627 32.0006C1.26627 40.21 4.46361 47.9281 10.2682 53.7328C16.0728 59.5376 23.7907 62.735 32 62.735C40.2092 62.735 47.9272 59.5376 53.7318 53.7328C59.5364 47.9281 62.7337 40.21 62.7337 32.0006C62.7337 26.2415 61.1319 20.628 58.1004 15.7654C55.1513 11.0345 50.9764 7.19004 46.0265 4.64605C45.715 4.4865 45.5935 4.10407 45.753 3.79383C45.9126 3.48232 46.2937 3.35949 46.6052 3.52031C51.7589 6.16814 56.1061 10.1709 59.1755 15.0955C62.3323 20.1595 64 26.0047 64 32.0006C64 40.5481 60.671 48.5841 54.627 54.6281C48.5831 60.6722 40.5473 64 32 64Z" fill="white"/>
<path d="M44.1302 2.71113C44.1302 3.1556 43.7693 3.5165 43.3249 3.5165C42.8804 3.5165 42.5195 3.1556 42.5195 2.71113C42.5195 2.26666 42.8804 1.90577 43.3249 1.90577C43.7693 1.9045 44.1302 2.26539 44.1302 2.71113Z" fill="white"/>
</svg>
