<svg width="20" height="23" viewBox="0 0 20 23" fill="none" xmlns="http://www.w3.org/2000/svg">
<path d="M9.91474 1.00005C5.09715 0.983611 1.16211 4.83393 1.00484 9.65344L1 9.95259C1.08008 12.3149 1.88018 14.5668 3.2894 16.422L3.62036 16.8559C4.96548 18.574 6.56399 20.0821 8.35886 21.325L8.79101 21.6172L8.85407 21.667C9.46926 22.111 10.2999 22.111 10.9151 21.667L10.9805 21.613L10.955 21.6318C12.384 20.7022 13.7016 19.6093 14.8814 18.3747C17.2731 15.8315 18.7146 12.9818 18.769 10.0878L18.7692 9.9803C18.7855 5.12853 14.9644 1.16345 10.1815 1.00492L9.91474 1.00005Z" stroke="#2F2F2F"/>
<path d="M9.88465 5.8457C7.65427 5.8457 5.84619 7.65378 5.84619 9.88416C5.84619 12.1145 7.65427 13.9226 9.88465 13.9226C12.115 13.9226 13.9231 12.1145 13.9231 9.88416C13.9231 7.65378 12.115 5.8457 9.88465 5.8457Z" stroke="#2F2F2F"/>
</svg>
