<svg width="24" height="24" viewBox="0 0 24 24" fill="none" xmlns="http://www.w3.org/2000/svg">
<path d="M11.9147 2.00005C7.09715 1.98361 3.16211 5.83393 3.00484 10.6534L3 10.9526C3.08008 13.3149 3.88018 15.5668 5.2894 17.422L5.62036 17.8559C6.96548 19.574 8.56399 21.0821 10.3589 22.325L10.791 22.6172L10.8541 22.667C11.4693 23.111 12.2999 23.111 12.9151 22.667L12.9805 22.613L12.955 22.6318C14.384 21.7022 15.7016 20.6093 16.8814 19.3747C19.2731 16.8315 20.7146 13.9818 20.769 11.0878L20.7692 10.9803C20.7855 6.12853 16.9644 2.16345 12.1815 2.00492L11.9147 2.00005Z" stroke="#2F2F2F"/>
<path d="M11.8847 6.8457C9.65427 6.8457 7.84619 8.65378 7.84619 10.8842C7.84619 13.1145 9.65427 14.9226 11.8847 14.9226C14.115 14.9226 15.9231 13.1145 15.9231 10.8842C15.9231 8.65378 14.115 6.8457 11.8847 6.8457Z" stroke="#2F2F2F"/>
</svg>
