<svg width="24" height="24" viewBox="0 0 24 24" fill="none" xmlns="http://www.w3.org/2000/svg">
<path fill-rule="evenodd" clip-rule="evenodd" d="M16.5253 3.00005L7.45618 3C4.28665 3 2 5.56151 2 8.85897V15.141C2 18.4385 4.28665 21 7.45618 21H16.5168C18.0392 20.9829 19.4802 20.3421 20.5126 19.2266C21.5449 18.111 22.0786 16.6183 21.9893 15.0959L21.9906 8.85897C22.0786 7.38171 21.5449 5.88895 20.5126 4.77344C19.4802 3.65794 18.0392 3.01705 16.5253 3.00005ZM7.45632 4.52837L16.5085 4.52832C17.6074 4.54066 18.6534 5.00586 19.4027 5.81556C20.1521 6.62527 20.5395 7.70881 20.4746 8.81383L20.4733 15.141C20.5395 16.2911 20.1521 17.3746 19.4027 18.1843C18.6534 18.994 17.6074 19.4592 16.5085 19.4716L7.45632 19.4715C5.16293 19.4715 3.51758 17.6284 3.51758 15.141V8.85891C3.51758 6.37149 5.16293 4.52837 7.45632 4.52837ZM18.0241 8.6382C17.7622 8.3087 17.2848 8.25539 16.9576 8.51914L12.8583 11.8241L12.7408 11.9067C12.2575 12.2094 11.6228 12.1814 11.1599 11.818L7.03061 8.51715L6.93767 8.45344C6.6174 8.26711 6.20146 8.34015 5.96465 8.64069C5.70416 8.9713 5.75908 9.452 6.0873 9.71437L10.2218 13.0193L10.3831 13.1374C11.4231 13.8457 12.8014 13.8066 13.7989 13.0235L17.9059 9.71239L17.9883 9.63535C18.24 9.36245 18.2621 8.93776 18.0241 8.6382Z" fill="#2F2F2F"/>
</svg>
