<svg width="24" height="24" viewBox="0 0 24 24" fill="none" xmlns="http://www.w3.org/2000/svg">
<g clip-path="url(#clip0_6_37)">
<path fill-rule="evenodd" clip-rule="evenodd" d="M2.29289 2.29292C2.02125 2.56456 1.92923 2.96779 2.05614 3.33038L9.05614 23.3304C9.19159 23.7174 9.54955 23.9825 9.95923 23.9992C10.3689 24.0159 10.7473 23.7808 10.9138 23.4062L14.7576 14.7576L23.4061 10.9138C23.7808 10.7473 24.0159 10.3689 23.9992 9.95926C23.9824 9.54959 23.7173 9.19162 23.3303 9.05617L3.33035 2.05617C2.96776 1.92926 2.56453 2.02128 2.29289 2.29292ZM12.8072 14.2215L10.1106 20.289L5.39147 6.80571L12.8072 14.2215ZM6.80568 5.3915L20.2889 10.1106L14.2215 12.8073L6.80568 5.3915Z" fill="#3C79DB"/>
</g>
<defs>
<clipPath id="clip0_6_37">
<rect width="24" height="24" fill="white"/>
</clipPath>
</defs>
</svg>
